<svg xmlns="http://www.w3.org/2000/svg" width="1141.001" height="1331.461" viewBox="0 0 1141.001 1331.461">
  <g id="Group_55" data-name="Group 55" transform="translate(-6116 4996.461)">
    <path id="Path_40" data-name="Path 40" d="M348.6,208.046q0,55.182-18.3,96.295t-50.538,65.972l64.2,50.811-59.279,50.264-85.5-68.84a177.724,177.724,0,0,1-24.04,1.639q-50.811,0-90.148-23.493t-61.328-67.2Q1.663,269.784.844,212.963V191.928q0-58.733,21.444-103.261T83.48,19.827q39.747-24.313,91.1-24.313,50.538,0,90.148,24.04t61.6,68.431q21.991,44.391,22.264,101.758Zm-97.524-16.664q0-59.279-19.805-90.012T174.584,70.638q-37.972,0-57.094,30.323t-19.4,88.782v18.3q0,58.733,19.4,90.012t57.64,31.279q36.606,0,56.138-30.869t19.805-88.782ZM569.325,366.761q-29.23,37.425-78.948,37.425-48.626,0-73.621-28.274t-25-81.27v-191.5h92.061V295.189q0,37.972,36.879,37.972,31.689,0,45.074-22.674V103.146h92.607V398.723H572.057ZM805.9,398.723H713.563V103.146H805.9ZM708.1,26.93q0-19.669,14.205-32.235t36.879-12.566q22.674,0,36.879,12.566T810.268,26.93q0,19.669-14.205,32.235T759.184,71.731q-22.674,0-36.879-12.566T708.1,26.93ZM971.169,327.7h134.676v71.026H854.8V347.366L985.92,174.172H860.532V103.146H1102.84v49.718Z" transform="translate(6134.199 -4136.388)" fill="#fff"/>
    <path id="Subtraction_6" data-name="Subtraction 6" d="M570.49,769.272A384.653,384.653,0,0,1,185.864,384.625a388.885,388.885,0,0,1,4.7-60.38C56.3,243.079-12.48,177.109,1.869,143.272c6.437-15.16,29.068-22.847,67.262-22.847,45.77,0,112.855,11.361,194,32.855a395.514,395.514,0,0,1,35.393-40.617A384.637,384.637,0,0,1,955.137,384.625a391.2,391.2,0,0,1-4.679,60.4c134.248,81.19,203.021,147.161,188.673,180.973-6.438,15.16-29.068,22.847-67.262,22.847-45.75,0-112.834-11.361-194-32.855A385.826,385.826,0,0,1,570.49,769.272ZM442.281,512.834c-38.557,0-69.926,26.145-69.926,58.282S403.724,629.4,442.281,629.4s69.947-26.145,69.947-58.282S480.85,512.834,442.281,512.834ZM939.109,495h0a512.6,512.6,0,0,1-28.05,68.1c1.1.338,119.879,37.03,154.455,37.03,5.108,0,8.164-.812,9.084-2.413a3.994,3.994,0,0,0,.167-3.139C1069.4,575.765,971.711,512.634,939.109,495ZM745.337,442.908a46.628,46.628,0,1,0,46.617,46.617A46.681,46.681,0,0,0,745.337,442.908ZM675.39,163.182a93.341,93.341,0,0,0-93.235,93.235c0,2.354.085,4.669.252,6.881,11.918,4.9,23.238,9.638,33.631,14.057,39.6,16.793,78.947,34.411,116.943,52.366a93.211,93.211,0,0,0-57.59-166.539ZM91.475,168.238c-5.952,0-9.488.911-10.511,2.706a4.244,4.244,0,0,0-.189,3.4c5.117,18.016,89.51,71.577,124.39,90.465a382.169,382.169,0,0,1,28.407-65.562l-.178-.051C222.343,196.028,124.445,168.238,91.475,168.238Z" transform="translate(6116 -4996.461)" fill="#fff"/>
  </g>
</svg>
