<?xml version="1.0" encoding="utf-8"?>
<!-- Generator: Adobe Illustrator 25.2.1, SVG Export Plug-In . SVG Version: 6.00 Build 0)  -->
<svg version="1.1" id="Layer_1" xmlns="http://www.w3.org/2000/svg" xmlns:xlink="http://www.w3.org/1999/xlink" x="0px" y="0px"
	 viewBox="0 0 363 363" style="enable-background:new 0 0 363 363;" xml:space="preserve">
<style type="text/css">
	.st0{fill:#EFB252;}
	.st1{fill:#FFFFFF;}
</style>
<rect class="st0" width="363" height="363"/>
<g>
	<path class="st1" d="M199.02,175.43v111.37c0,17.24-4.69,30.52-14.07,39.84c-9.38,9.32-22.03,13.98-37.94,13.98
		c-16.66,0-30.02-4.89-40.08-14.68c-10.06-9.79-15.08-23.69-15.08-41.71h38.28c0,6.84,1.35,12,4.05,15.49s6.6,5.24,11.71,5.24
		c4.65,0,8.25-1.55,10.81-4.66c2.55-3.11,3.83-7.61,3.83-13.51V175.43H199.02z"/>
	<path class="st1" d="M256.21,334.81c-9.16-3.88-16.47-9.63-21.95-17.24c-5.48-7.61-8.37-16.78-8.67-27.49h40.98
		c0.6,6.06,2.62,10.68,6.08,13.86c3.45,3.19,7.95,4.78,13.51,4.78c5.7,0,10.21-1.36,13.51-4.08c3.3-2.72,4.95-6.48,4.95-11.3
		c0-4.04-1.32-7.38-3.94-10.02c-2.63-2.64-5.85-4.81-9.68-6.52c-3.83-1.71-9.27-3.65-16.32-5.83c-10.21-3.26-18.54-6.52-24.99-9.79
		c-6.46-3.26-12.01-8.07-16.66-14.45c-4.65-6.37-6.98-14.68-6.98-24.93c0-15.22,5.33-27.14,15.99-35.77
		c10.66-8.62,24.54-12.93,41.65-12.93c17.41,0,31.44,4.31,42.1,12.93c10.66,8.62,16.36,20.62,17.11,36h-41.65
		c-0.3-5.28-2.18-9.44-5.63-12.47c-3.46-3.03-7.88-4.54-13.28-4.54c-4.65,0-8.41,1.28-11.26,3.84c-2.85,2.56-4.28,6.25-4.28,11.07
		c0,5.28,2.4,9.4,7.21,12.35c4.8,2.95,12.31,6.14,22.51,9.55c10.21,3.58,18.5,6.99,24.88,10.25c6.38,3.26,11.89,8,16.55,14.21
		c4.65,6.21,6.98,14.21,6.98,24c0,9.32-2.29,17.79-6.87,25.4c-4.58,7.61-11.22,13.67-19.93,18.17c-8.71,4.51-18.99,6.76-30.85,6.76
		C275.72,340.63,265.36,338.69,256.21,334.81z"/>
</g>
</svg>
